<?xml version="1.0" encoding="utf-8"?>
<!-- Generator: Adobe Illustrator 22.0.1, SVG Export Plug-In . SVG Version: 6.00 Build 0)  -->
<svg version="1.1" id="Calque_1" xmlns="http://www.w3.org/2000/svg" xmlns:xlink="http://www.w3.org/1999/xlink" x="0px" y="0px"
	 viewBox="0 0 107.4 106.4" style="enable-background:new 0 0 107.4 106.4;" xml:space="preserve">
<style type="text/css">
	.st0{fill:#FFFFFF;}
	.st1{fill:none;stroke:#FFFFFF;stroke-width:4;stroke-linejoin:round;stroke-miterlimit:10;}
</style>
<path class="st0" d="M63.2,72.2C63.2,72.2,63.2,72.2,63.2,72.2C63.2,72.2,63.3,72.2,63.2,72.2c5.2-3.6,9-9.6,9-14.3V36.1
	c0,0,0.6-18.2-17.6-18.2S36.9,36.1,36.9,36.1v21.8c0,4.7,3.9,10.7,9,14.3c0,0,0.1,0,0.1,0c0,0,0,0,0,0c-0.4,2.3-1.7,5.7-6.1,7.6
	c-4.6,2.1-14.4,6.6-20.5,12.6c9.1,7.9,21.1,12.7,34.2,12.7c13.5,0,25.9-5.1,35.1-13.5c-6.1-5.6-15.2-9.8-19.6-11.7
	C64.9,77.9,63.6,74.5,63.2,72.2"/>
<path class="st1" d="M63.2,72.2C63.2,72.2,63.2,72.2,63.2,72.2C63.2,72.2,63.3,72.2,63.2,72.2c5.2-3.6,9-9.6,9-14.3V36.1
	c0,0,0.6-18.2-17.6-18.2S36.9,36.1,36.9,36.1v21.8c0,4.7,3.9,10.7,9,14.3c0,0,0.1,0,0.1,0c0,0,0,0,0,0c-0.4,2.3-1.7,5.7-6.1,7.6
	c-4.6,2.1-14.4,6.6-20.5,12.6c9.1,7.9,21.1,12.7,34.2,12.7c13.5,0,25.9-5.1,35.1-13.5c-6.1-5.6-15.2-9.8-19.6-11.7
	C64.9,77.9,63.6,74.5,63.2,72.2z"/>
<path class="st1" d="M53.7,2C25.3,2,2.2,25.1,2.2,53.7c0,15.6,6.9,29.5,17.7,39c6-6,15.7-10.5,20.3-12.6c4.3-1.9,5.4-5.3,5.8-7.6
	c-5.1-3.6-8.9-9.6-8.9-14.3V36.4c0,0-0.6-18.1,17.5-18.1C72.6,18.3,72,36.4,72,36.4v21.8c0,4.7-3.7,10.7-8.8,14.3
	c0.4,2.3,1.7,5.7,6,7.6c4.4,2,13.4,6.2,19.4,11.7c10.3-9.5,16.8-23.1,16.8-38.2C105.3,25.1,82.2,2,53.7,2z"/>
</svg>
