<svg version="1.1" xmlns="http://www.w3.org/2000/svg" xmlns:xlink="http://www.w3.org/1999/xlink" x="0px" y="0px"
	 viewBox="0 0 738.1 233.6" style="enable-background:new 0 0 738.1 233.6;" xml:space="preserve">
<style type="text/css">
	.st0{fill:#FFFFFF;}
	.st1{fill:none;}
	.st2{enable-background:new    ;}
	.st3{display:none;}
	.st4{display:inline;fill:#FFFFFF;}
	.st5{fill:#0B0B0E;}
	.st6{display:none;fill:#0B0B0E;}
	.st7{fill:#FF2A53;}
	.st8{fill:#2EA3F2;}
</style>
<g>
	<path class="st0" d="M618.1,169.8c1.1-1.2,2.2-2.2,3.7-2.9c1.7-0.9,3.5-1.3,5.5-1.3c3.5,0,7.1,0,10.7,0c8.4,0,15.6,6.3,15.6,13.8
		c0.1,8.3,0,16.8,0,25.1c0,0.9-0.4,1-1.2,1c-3.8,0-7.6-0.1-11.4,0c-1.1,0-1.2-0.4-1.2-1.2c0-8,0-15.9,0-23.9c0-1.9-0.7-2.5-2.7-2.5
		c-3.1,0-6.3,0-9.4,0c-2,0-2.7,0.7-2.7,2.6c0,7.9,0,15.7,0,23.6c0,1.1-0.2,1.4-1.5,1.4c-3.5-0.1-7.1-0.1-10.7,0
		c-1.2,0-1.7-0.2-1.6-1.4c0.1-7.8,0-15.6,0-23.4c0-2-0.7-2.7-2.9-2.7c-2.9,0-5.9,0-8.9,0c-2.5,0-3.2,0.6-3.2,2.8
		c0,7.8,0,15.6,0,23.4c0,1-0.3,1.2-1.4,1.2c-3.7-0.1-7.5,0-11.3,0c-0.8,0-1.2-0.2-1.2-1c0-8.3-0.1-16.8,0.1-25.1
		c0.1-7.7,7.3-13.8,16-13.8c3.3,0,6.5,0.1,9.8,0C612.3,165.4,615.4,166.9,618.1,169.8z"/>
	<path class="st0" d="M698.8,191.3c-4.4,0-9,0-13.4,0c-1.2,0-1.8,0.3-1.9,1.3c-0.1,1.1,0.4,1.6,1.7,1.7c4.2,0.4,8.4,0.4,12.7,0.4
		c5,0.1,9.8,0.1,14.8,0c1,0,1.3,0.3,1.2,1.2c-0.1,2.8-0.1,5.6,0,8.4c0,0.9-0.3,1.1-1.2,1.1c-8.2,0-16.4,0-24.7,0
		c-7-0.1-13.7-5.4-14.6-11.9c-0.7-5-0.3-10-0.2-15c0-1.4,0.5-2.7,1.1-4c0.3-0.7,0.6-1.1,1.2-0.3c0.3,0.3,0.6,0.5,0.9,0.9
		c0.4,0.5,0.9,0.5,1.3,0c0.6-0.9,1.3-0.8,2,0c0.4,0.4,0.7,0.6,1.1,1c0.8,0.8,1.5,1.6,2.5,0.2c0.3-0.4,0.7-0.4,1.1,0
		c0.9,0.9,1.9,1.8,2.8,2.7c0.4,0.4,0.3,0.6-0.1,0.9c-1.2,1.1-2.5,2.2-3.7,3.3c-0.5,0.4-1,0.8-0.2,1.5c0.7,0.6,1.1,0.4,1.5-0.1
		c0.7-0.8,1.2-0.7,1.8,0.1c0.4,0.6,1,0.8,1.5,0c0.6-0.8,1.2-0.8,1.9,0c0.5,0.6,1,0.8,1.6,0c0.6-0.9,1.3-0.6,1.9,0.1
		c0.5,0.6,1,0.7,1.4,0c0.6-0.8,1.2-0.8,1.9,0c0.5,0.7,1,0.8,1.6,0c0.5-0.7,1.2-0.7,1.8,0c0.6,0.9,1.3,1,2,0.1c0.4-0.6,1-0.6,1.4,0
		c0.6,0.8,1.2,0.9,1.9,0c0.7-0.9,1.3-0.7,1.9,0.1c0.4,0.4,0.6,0.8,1.2,0.2c0.5-0.5,0.4-0.8-0.1-1.3c-5.5-5.1-11-10.4-16.5-15.5
		c-0.4-0.4-0.8-1-1.5-0.3c-0.7,0.6-0.3,0.9,0.3,1.2c0.9,0.6,0.6,1.1-0.1,1.6s-1.2,1-0.1,1.7c1.2,0.7,0.1,1.2-0.4,1.8
		c-0.5,0.6-1.1,0.7-1.6,0s-1.1-1-1.8-0.1c-0.4,0.6-1,0.7-1.6,0c-0.4-0.4-0.8-0.7-1.2-1.1c-0.8-0.9-1.5-1.8-2.7-0.3
		c-0.3,0.4-0.7,0.3-1.1-0.1c-0.4-0.4-0.9-0.9-1.3-1.3c-1.5-1.4-1.5-1.4,0.3-2.7c2.7-2,5.7-3.2,9.1-3.2c5.3-0.1,10.6,0,15.9,0.1
		c2.2,0,4.4,0.5,6.5,1.4c3.8,1.7,5.6,4.6,5.8,8.3c0.2,4.2-1,8.2-1.8,12.3c-0.3,1.2-0.1,2.7-1,3.3c-1,0.7-2.7,0.2-4,0.2
		c-3.5,0-7.1,0-10.7,0C698.8,191.2,698.8,191.3,698.8,191.3z"/>
	<path class="st0" d="M565.9,186.3c0-5.9,0-11.9,0-17.9c0-1,0.3-1.2,1.3-1.2c3.7,0.1,7.5,0.1,11.3,0c1,0,1.2,0.3,1.2,1.2
		c0,12,0,24,0,36c0,0.9-0.3,1.2-1.2,1.1c-3.7-0.1-7.5-0.1-11.3,0c-1.1,0-1.3-0.3-1.3-1.2C565.9,198.2,565.9,192.3,565.9,186.3z"/>
	<path class="st0" d="M670.3,186.4c0,5.9,0,11.9,0,17.9c0,1-0.3,1.2-1.3,1.2c-3.8-0.1-7.6-0.1-11.4,0c-0.9,0-1.1-0.2-1.1-1
		c0-12.1,0-24.2,0-36.3c0-0.8,0.3-1,1.2-1c3.8,0,7.7,0,11.5,0c1,0,1.2,0.3,1.2,1.1C670.3,174.3,670.3,180.3,670.3,186.4z"/>
	<path class="st0" d="M572.8,165.6c-2,0-3.9,0-5.9,0c-0.7,0-1.2-0.1-1.1-0.9c0.1-2,0.1-3.9,0-5.9c0-0.6,0.3-0.9,1-0.9
		c4,0,8.1,0,12.1,0c0.8,0,1.1,0.3,1,1c0,2-0.1,3.8,0,5.8c0,0.7-0.3,1-1.1,0.9C576.9,165.5,574.8,165.6,572.8,165.6z"/>
	<path class="st0" d="M663.5,158c2,0,3.9,0,5.9,0c0.8,0,1.2,0.2,1.2,1c-0.1,2-0.1,3.8,0,5.8c0,0.7-0.3,0.9-1.1,0.9c-4,0-8,0-12,0
		c-0.7,0-1.1-0.1-1.1-0.9c0.1-2,0.1-3.9,0-5.9c0-0.7,0.3-0.9,1-0.9C659.5,158,661.6,158,663.5,158z"/>
</g>
<rect x="497.6" y="173.6" class="st1" width="51.3" height="42"/>
<g class="st2">
	<path class="st0" d="M515.2,186.2l-1.3,1.5c1.5,0.1,2.8,0.3,4,0.5c1.2,0.2,2.3,0.5,3.3,0.8s1.9,0.6,2.6,0.9c2.7,1.1,4,2.7,4,4.6
		c0,1.2-0.6,2.4-1.7,3.6c-1.1,1.2-2.5,2.2-4.3,3.1c-1.8,0.9-3.6,1.6-5.5,2.1c-1.9,0.5-3.6,0.8-5.1,0.8c-2.6,0-4.5-0.5-6-1.4
		c-1.4-0.9-2.1-2.2-2.1-3.9c0-1.1,0.4-2.5,1.3-4c0.9-1.5,2.2-3.5,4.1-5.8c-1.4-0.1-2.4-0.3-2.9-0.6c-0.6-0.3-0.9-0.8-0.9-1.4
		c0-0.4,0.1-0.7,0.3-0.9c0.2-0.2,0.5-0.3,0.9-0.4c0.4-0.1,1.1-0.2,2.1-0.3c1-0.1,2.4-0.3,4-0.5c1.8-2.2,3.5-3.9,4.9-5.1
		c1.5-1.1,3-1.8,4.7-2c0.1,0,0.3,0,0.4,0c0.2,0,0.2,0,0.2,0.1c0,0.1-0.2,0.4-0.6,0.8s-1,1.1-1.8,2.1s-1.9,2.1-3,3.4
		c3.2-0.4,5.7-0.9,7.7-1.4c2-0.5,3.5-1.2,4.5-2s1.5-1.6,1.5-2.5c0-1.1-0.5-1.9-1.6-2.4c-1.1-0.5-2.8-0.8-5-0.8
		c-1.2,0-2.7,0.1-4.3,0.4s-3.1,0.5-4.4,0.9c-1.3,0.3-2.5,0.7-3.5,1c-1,0.4-1.5,0.6-1.5,0.8c0,0,0.1,0.1,0.2,0.2
		c0.8,0.3,1.2,0.6,1.2,0.8c0,0.3-1.3,0.8-3.8,1.5c-2.5,0.8-4.2,1.1-5.1,1.1c-0.6,0-0.9-0.3-0.9-0.9c0-0.7,0.7-2.1,2-4
		s2.6-3.2,3.7-3.7c0.4-0.2,1.3-0.5,2.7-0.9c1.4-0.4,3-0.8,4.6-1.2c1.7-0.4,3.4-0.7,5.2-0.9s3.3-0.4,4.6-0.4c3.2,0,5.6,0.6,7.2,1.7
		c1.6,1.1,2.4,2.6,2.4,4.3c0,1.2-0.4,2.3-1.1,3.3c-0.7,1.1-1.9,2.1-3.4,3s-3.6,1.8-6,2.5S518.5,185.9,515.2,186.2z M512.5,189.5
		c-0.9,1-1.7,2-2.3,2.8c-0.7,0.8-1.2,1.4-1.5,1.9c-0.3,0.5-0.4,1-0.4,1.5c0,0.8,0.4,1.5,1.2,2.2s2,0.9,3.6,0.9c1.4,0,3-0.3,4.6-0.8
		c1.6-0.5,3-1.2,4.1-2c1.1-0.8,1.7-1.7,1.7-2.5c0-0.7-0.4-1.3-1.2-1.8c-0.8-0.5-2.1-0.9-3.8-1.2
		C516.9,190.1,514.8,189.8,512.5,189.5z"/>
	<path class="st0" d="M541.5,196.3l-4.5,3.8c-2.1,1.9-3.6,2.8-4.3,2.8c-0.7,0-1.3-0.8-2.1-2.3s-1.1-2.8-1.1-3.9c0-1,0.1-1.8,0.4-2.4
		c0.3-0.7,0.8-1.5,1.5-2.6c1-1.4,2-2.6,2.9-3.6c0.9-1,1.8-1.8,2.5-2.3c0.7-0.5,1.2-0.8,1.5-0.8c0.5,0,0.9,0.2,1.3,0.7
		c0.4,0.5,0.6,1,0.6,1.5c0,0.3-0.2,0.8-0.7,1.5c-0.5,0.7-1.2,1.6-2.2,2.7s-2.4,2.4-4.2,3.9l-0.5,1.4c-0.1,0.3-0.2,0.5-0.2,0.7
		c0,0.5,0.2,0.7,0.7,0.7c0.5,0,1.6-0.6,3.3-1.8c1.7-1.2,3.6-2.8,5.7-4.8c0.8-0.8,1.4-1.5,2-2.1s1-1.2,1.4-1.7c0.4-0.5,0.8-0.9,1-1.2
		c0.3-0.3,0.5-0.4,0.7-0.4c0.4,0,0.7,0.1,1,0.5c0.2,0.4,0.4,1,0.4,1.8c0,0.5-0.2,1-0.6,1.7c-0.4,0.7-1.2,1.8-2.3,3.5
		c-1.1,1.6-2.2,3.3-3.3,5.1c-1.1,1.8-2.2,3.7-3.4,5.9c0.1-0.1,0.6-0.6,1.5-1.5c1-1,2-2,3.1-3c1.1-1,2-1.9,2.7-2.5
		c0.7-0.6,1.6-1.4,2.6-2.2v1.7c-2.3,2.4-4.3,4.7-6.2,6.9c-1.8,2.2-3.3,3.9-4.3,5.2c-1,1.3-1.6,2.1-1.8,2.3c-0.5,0.6-0.9,1.1-1.2,1.7
		c-0.4,0.5-0.7,0.9-0.9,1.2s-0.4,0.4-0.6,0.4c-0.4,0-0.7-0.3-0.9-1c-0.3-0.7-0.4-1.3-0.4-1.9c0-0.5,0.1-0.9,0.3-1.3
		C534.5,207.8,537.2,203.1,541.5,196.3z"/>
</g>
<g class="st3">
	<rect x="-105.2" y="-53.5" class="st4" width="951.2" height="309"/>
</g>
<rect x="502" y="-1" class="st0" width="236.2" height="234"/>
<path class="st5" d="M688,158.3h-12.3V151H688V158.3z M687.8,197.5h-12.1V160h12.1V197.5z M673.1,197.5h-12.1v-25.1c0-1.1-0.9-2-2-2
	h-9.6c-1.1,0-2,0.9-2,2v25.1h-12.1v-25.1c0-1.1-0.9-2-2-2h-9.5c-1.1,0-2,0.9-2,2v25.1h-12.1v-25.1c0-7.8,6.4-14.1,14.1-14.1h9.5
	c3,0,6.4,2,8,4.4c1.6-2.5,5.1-4.4,8-4.4h9.6c7.7,0,14,6.3,14,14.1v25.1H673.1z M607.4,158.3h-12.3V151h12.3V158.3z M607.2,197.5
	h-12.1V160h12.1V197.5z"/>
<g>
	<path class="st5" d="M702.3,197.7c-8.2,0-12.3-4.1-12.3-12.1v-15.1c0-7.6,4.1-11.4,12.2-11.4h11c8.2,0,12.2,3.8,12.2,11.4v1.4
		c0,7.1-4.1,10.6-12.2,10.6H700v4.3c0,1.5,0.8,2.3,2.3,2.3h20.2v8.5L702.3,197.7L702.3,197.7z M702.3,167.5c-1.5,0-2.3,0.5-2.3,1.7
		v6.3h13.3c1.5,0,2.3-0.7,2.3-2.2v-4.1c0-1.1-0.8-1.7-2.3-1.7H702.3z"/>
</g>
<rect x="502" y="-1" class="st1" width="230.5" height="231.9"/>
<path class="st6" d="M604.3,164.4l-2.2,2.5c2.5,0.2,4.8,0.5,6.8,0.9s3.8,0.8,5.5,1.3s3.2,1,4.5,1.5c4.5,1.9,6.7,4.5,6.7,7.8
	c0,2-0.9,4-2.8,6c-1.9,1.9-4.3,3.7-7.3,5.2s-6.1,2.7-9.3,3.6c-3.2,0.9-6.1,1.3-8.6,1.3c-4.3,0-7.7-0.8-10.1-2.4
	c-2.4-1.6-3.6-3.8-3.6-6.5c0-1.9,0.7-4.2,2.2-6.8s3.8-5.8,6.9-9.7c-2.3-0.1-4-0.5-4.9-1s-1.5-1.4-1.5-2.4c0-0.6,0.2-1.1,0.6-1.5
	c0.4-0.3,0.9-0.6,1.5-0.7c0.6-0.2,1.8-0.3,3.6-0.6s4.1-0.5,6.8-0.8c3.1-3.8,5.9-6.6,8.3-8.5s5.1-3,7.9-3.3c0.2,0,0.5,0,0.7,0
	s0.4,0.1,0.4,0.2c0,0.2-0.3,0.6-1,1.4c-0.6,0.7-1.7,1.9-3.1,3.5c-1.4,1.6-3.1,3.5-5.1,5.7c5.3-0.7,9.7-1.5,13.1-2.4
	c3.4-0.9,6-2,7.7-3.3s2.6-2.7,2.6-4.2c0-1.9-0.9-3.3-2.8-4.1c-1.8-0.8-4.7-1.3-8.5-1.3c-2.1,0-4.5,0.2-7.2,0.6
	c-2.7,0.4-5.2,0.9-7.4,1.4s-4.2,1.1-5.9,1.7c-1.7,0.6-2.6,1-2.6,1.3c0,0.1,0.1,0.2,0.3,0.3c1.4,0.5,2.1,0.9,2.1,1.3
	c0,0.5-2.1,1.3-6.4,2.6c-4.3,1.3-7.1,1.9-8.6,1.9c-1.1,0-1.6-0.5-1.6-1.6c0-1.2,1.1-3.5,3.4-6.7c2.3-3.2,4.4-5.3,6.2-6.2
	c0.7-0.3,2.2-0.8,4.6-1.5c2.4-0.7,5-1.3,7.9-1.9c2.9-0.6,5.8-1.1,8.7-1.6c3-0.4,5.6-0.6,7.8-0.6c5.4,0,9.4,1,12.1,2.9
	c2.7,1.9,4.1,4.3,4.1,7.2c0,1.9-0.6,3.8-1.9,5.6c-1.2,1.8-3.2,3.5-5.8,5.1s-6,3-10.2,4.2S610,163.7,604.3,164.4z M599.8,169.8
	c-1.5,1.7-2.8,3.3-3.9,4.6c-1.2,1.3-2,2.4-2.5,3.3c-0.5,0.8-0.7,1.7-0.7,2.5c0,1.4,0.7,2.6,2.1,3.6c1.4,1.1,3.4,1.6,6.1,1.6
	c2.4,0,5.1-0.4,7.8-1.3s5.1-2,7-3.4s2.8-2.8,2.8-4.2c0-1.2-0.7-2.2-2.1-3c-1.4-0.8-3.5-1.5-6.4-2.1
	C607.2,170.9,603.8,170.3,599.8,169.8z"/>
<path class="st6" d="M648.8,181.3l-7.6,6.4c-3.6,3.1-6,4.7-7.3,4.7c-1.1,0-2.3-1.3-3.5-3.8s-1.8-4.7-1.8-6.6c0-1.6,0.2-3,0.7-4.1
	s1.4-2.6,2.6-4.3c1.7-2.4,3.4-4.4,5-6.1c1.6-1.7,3-3,4.2-3.9s2.1-1.4,2.6-1.4c0.8,0,1.5,0.4,2.2,1.2s1.1,1.6,1.1,2.5
	c0,0.5-0.4,1.4-1.2,2.6c-0.8,1.2-2,2.7-3.7,4.5s-4,4-7.1,6.5l-0.8,2.3c-0.2,0.5-0.3,0.8-0.3,1.2c0,0.8,0.4,1.1,1.2,1.1s2.7-1,5.6-3
	c2.9-2,6.1-4.7,9.6-8.1c1.3-1.3,2.4-2.5,3.3-3.5c0.9-1,1.7-2,2.4-2.9s1.3-1.6,1.8-2c0.5-0.5,0.9-0.7,1.3-0.7
	c0.7-0.1,1.3,0.2,1.7,0.9s0.6,1.7,0.6,3c0,0.8-0.3,1.7-1,2.9s-2,3.1-3.8,5.8s-3.7,5.6-5.6,8.5c-1.9,2.9-3.8,6.3-5.7,10
	c0.1-0.1,1-0.9,2.6-2.5c1.7-1.6,3.4-3.3,5.3-5s3.4-3.1,4.6-4.2s2.7-2.3,4.5-3.7v2.8c-3.8,4.1-7.3,8-10.4,11.6
	c-3.1,3.7-5.5,6.6-7.2,8.8s-2.7,3.5-3,3.8c-0.8,1-1.5,1.9-2.1,2.8c-0.6,0.9-1.1,1.5-1.5,2s-0.7,0.7-1,0.7c-0.6,0-1.1-0.6-1.6-1.8
	s-0.7-2.2-0.7-3.1c0-0.8,0.2-1.5,0.5-2.2C637.1,200.5,641.7,192.6,648.8,181.3z"/>
<path class="st7" d="M247.1,109.2l-17,7.7l17,7.6V137l-34.8-17v-6l34.8-17.1V109.2z"/>
<path class="st7" d="M287.8,110.5c1.9,0.3,3.6,0.9,5.2,1.8c1.6,0.9,3,2,4.2,3.4s2.1,2.9,2.8,4.6s1,3.6,1,5.6c0,2-0.4,4-1,5.9
	c-0.6,1.9-1.6,3.5-2.8,5c-1.2,1.4-2.8,2.6-4.7,3.5s-4,1.3-6.5,1.3h-28.8V92.1h23.7c1.4,0,2.8,0.3,4.1,0.8c1.2,0.5,2.4,1.3,3.3,2.2
	c1,1,1.7,2,2.2,3.3c0.5,1.2,0.8,2.6,0.8,4.1c0,1.6-0.4,3-1,4.4C289.8,108.3,288.9,109.5,287.8,110.5z M270.3,109.1h5.2
	c1.3,0,2.3-0.3,2.9-0.8c0.6-0.5,0.9-1.2,0.9-2c0-0.8-0.3-1.5-0.9-2s-1.6-0.8-2.9-0.8h-5.2V109.1z M278.3,130.2
	c3.1,0,5.3-0.5,6.6-1.5c1.2-1.1,1.9-2.5,1.9-4.3c0-0.7-0.2-1.4-0.4-2c-0.3-0.7-0.8-1.2-1.5-1.9c-0.7-0.5-1.5-1-2.6-1.3
	c-1.1-0.4-2.3-0.5-3.8-0.5h-8v11.4L278.3,130.2L278.3,130.2z"/>
<path class="st7" d="M344.6,130.6v10.9h-37.3V92.1h13.7v38.4L344.6,130.6L344.6,130.6z"/>
<path class="st7" d="M375.1,91.6c3.6,0,7.1,0.7,10.3,2c3.2,1.3,6,3.1,8.4,5.4s4.3,5,5.7,8.1s2,6.4,2,9.8c0,3.5-0.7,6.8-2,9.8
	c-1.4,3.1-3.3,5.8-5.7,8.1c-2.4,2.3-5.1,4.1-8.4,5.4c-3.2,1.3-6.7,2-10.3,2c-3.6,0-7.1-0.7-10.3-2c-3.2-1.3-6-3.1-8.4-5.4
	s-4.3-5-5.7-8.1c-1.4-3.1-2-6.4-2-9.8c0-3.5,0.7-6.8,2-9.8c1.4-3.1,3.3-5.8,5.7-8.1c2.4-2.3,5.2-4.1,8.4-5.4
	C368,92.2,371.4,91.6,375.1,91.6z M375.1,130c1.7,0,3.4-0.4,4.9-1c1.5-0.7,2.8-1.6,4-2.8c1.2-1.2,2-2.6,2.7-4.2s1-3.3,1-5.1
	c0-1.9-0.4-3.5-1-5.1s-1.6-3-2.7-4.2c-1.2-1.2-2.5-2.1-4-2.8c-1.5-0.7-3.1-1-4.9-1c-1.7,0-3.4,0.4-4.9,1c-1.5,0.7-2.8,1.6-4,2.8
	c-1.2,1.2-2,2.6-2.7,4.2c-0.6,1.6-1,3.3-1,5.1c0,1.9,0.4,3.5,1,5.1c0.6,1.6,1.5,3,2.7,4.2c1.2,1.2,2.4,2.1,4,2.8
	C371.7,129.6,373.3,130,375.1,130z"/>
<path class="st7" d="M454.9,116v18.9c-1.9,1.5-3.9,2.8-6.2,3.9c-2.3,1.2-4.8,2-7.4,2.5c-2.5,0.5-5.1,0.8-7.9,0.8
	c-3.6,0-7.1-0.7-10.3-2c-3.2-1.3-6-3.1-8.4-5.4s-4.3-5-5.7-8.1c-1.4-3.1-2-6.4-2-9.8c0-3.5,0.7-6.8,2-9.8c1.4-3.1,3.3-5.8,5.7-8.1
	c2.4-2.3,5.2-4.1,8.4-5.4c3.2-1.3,6.7-2,10.3-2c4.2,0,7.9,0.6,11.3,1.9c3.4,1.2,6.2,3,8.6,5.2l-8.5,9.1c-1.4-1.2-3.1-2.2-5.1-2.9
	c-2-0.7-4.1-1.1-6.3-1.1c-1.7,0-3.4,0.4-4.9,1c-1.5,0.7-2.8,1.6-4,2.8c-1.2,1.2-2,2.6-2.7,4.2s-1,3.3-1,5.1c0,2,0.4,3.8,1,5.5
	s1.5,3.1,2.7,4.3c1.2,1.2,2.5,2.2,4,2.9c1.5,0.7,3.1,1.1,4.9,1.1c1.5,0,2.9-0.2,4.2-0.6c1.3-0.4,2.6-1,3.7-1.7V127h-8.9v-10.9
	L454.9,116L454.9,116z"/>
<path class="st8" d="M40.4,200.7V212H0.7v-49.4H39v11.3H13.9v8.7h20.7v10.9H13.9v7.2L40.4,200.7L40.4,200.7z"/>
<path class="st8" d="M87.7,173.9H73.1v38H59.4v-38H44.7v-11.3h43V173.9z"/>
<path class="st8" d="M138.7,192.1c0,2.1-0.3,4.2-0.9,6.1c-0.5,2-1.4,3.7-2.5,5.4c-1.1,1.7-2.5,3.1-4.2,4.4c-1.7,1.2-3.5,2.3-5.8,3
	c-2.8,1-6,1.5-9.7,1.5s-6.8-0.5-9.5-1.5c-3.5-1.2-6.4-3.1-8.5-5.6c-2.1-2.5-3.5-5.4-4.3-8.6c-0.3-1.4-0.4-3-0.4-4.8v-29.5h13.2v26
	c0,4.5,0.8,7.6,2.4,9.4c1.6,1.8,4,2.7,7.2,2.7c3.2,0,5.6-0.9,7.2-2.7c1.6-1.8,2.5-4.9,2.5-9.4v-26h13.3L138.7,192.1z"/>
<path class="st8" d="M193.2,187.3c0,3.3-0.6,6.4-1.9,9.2c-1.2,2.9-2.8,5.4-5,7.6c-2.1,2.2-4.5,4-7.4,5.4c-2.8,1.4-5.9,2.1-9,2.3
	h-23.3v-49.4h21.7c3.4,0,6.7,0.6,9.7,2c3,1.2,5.7,3,7.9,5.3c2.2,2.2,4,4.9,5.3,7.9C192.5,180.7,193.2,183.9,193.2,187.3z M168.7,200
	c1.5-0.1,3-0.4,4.3-1.2c1.3-0.7,2.5-1.6,3.5-2.7c1-1.2,1.8-2.5,2.3-4c0.6-1.5,0.9-3.1,0.9-4.8s-0.3-3.4-0.9-5
	c-0.6-1.6-1.4-2.9-2.5-4.1s-2.2-2-3.6-2.7c-1.4-0.7-2.8-1-4.4-1h-8.5V200L168.7,200L168.7,200z"/>
<path class="st8" d="M214.1,212h-13.7v-49.4h13.7V212z"/>
<path class="st8" d="M256.1,203.7H237l-3.5,8.2h-14.3l24.1-49.4h6.5l24.2,49.4h-14.3L256.1,203.7z M241.8,192.8h9.5l-4.8-10.7
	L241.8,192.8z"/>
<path class="st8" d="M325,162.6V212h-6.5l-26.2-25.4V212h-13.7v-49.4h6.5l26.2,25.4v-25.4H325z"/>
<path class="st8" d="M374,173.9h-14.6v38h-13.7v-38H331v-11.3h43V173.9z"/>
<path class="st8" d="M403.9,156.1h10.8l-31,64.8h-10.8L403.9,156.1z"/>
<path class="st8" d="M418.7,195l17-7.6l-17-7.7v-12.4l34.8,17.1v6l-34.8,17V195z"/>
</svg>
