<svg id="Calque_1" data-name="Calque 1" xmlns="http://www.w3.org/2000/svg" viewBox="0 0 738.07 233.6"><defs><style>.cls-1,.cls-3{fill:#fff;}.cls-2{fill:none;}.cls-3{isolation:isolate;font-size:51.58px;font-family:BrushScriptMT, Brush Script MT;font-style:italic;}.cls-4{fill:#0b0b0e;}.cls-5{fill:#ff2a53;}.cls-6{fill:#2ea3f2;}</style></defs><title>logo-imie-blog</title><path class="cls-1" d="M618.11,169.78a12.21,12.21,0,0,1,3.72-2.93,11.56,11.56,0,0,1,5.5-1.33h10.73c8.42,0,15.61,6.3,15.61,13.83.08,8.34,0,16.76,0,25.1,0,.88-.36,1-1.25,1-3.81,0-7.62-.09-11.43,0-1.07,0-1.25-.35-1.25-1.15V180.42c0-1.86-.71-2.48-2.74-2.48h-9.4c-2,0-2.75.71-2.75,2.57v23.58c0,1.07-.18,1.42-1.51,1.42-3.55-.09-7.09-.09-10.73,0-1.24,0-1.68-.18-1.59-1.42.08-7.8,0-15.6,0-23.41,0-2-.71-2.66-2.93-2.66h-8.87c-2.48,0-3.19.63-3.19,2.84v23.41c0,1-.27,1.24-1.42,1.24-3.72-.09-7.54,0-11.26,0-.8,0-1.15-.18-1.15-1,0-8.34-.09-16.76.09-25.1.08-7.71,7.27-13.83,16-13.83,3.28,0,6.47.09,9.75,0A12.35,12.35,0,0,1,618.11,169.78Z"/><path class="cls-1" d="M698.8,191.33H685.41c-1.15,0-1.77.26-1.86,1.33s.35,1.59,1.68,1.68c4.17.35,8.43.35,12.68.44,5,.09,9.84.09,14.81,0,1,0,1.33.27,1.24,1.16-.09,2.83-.09,5.58,0,8.42,0,.89-.26,1.06-1.24,1.06H688.07c-7-.09-13.66-5.41-14.63-11.88-.71-5-.27-10-.18-15a10.12,10.12,0,0,1,1.07-4c.26-.71.62-1.07,1.24-.27a8.25,8.25,0,0,1,.88.89.75.75,0,0,0,1.33,0c.62-.89,1.33-.8,2,0,.36.35.71.62,1.07,1,.8.8,1.51,1.6,2.48.18a.68.68,0,0,1,1.07,0c.88.89,1.86,1.77,2.83,2.66.45.35.27.62-.09.89-1.24,1.06-2.48,2.21-3.72,3.28-.53.44-1,.8-.18,1.5s1.07.45,1.51-.08c.71-.8,1.24-.71,1.77.08.45.63,1,.8,1.51,0s1.24-.79,1.86,0c.53.63,1,.8,1.6,0s1.33-.62,1.86.09,1,.71,1.42,0q.93-1.19,1.86,0c.53.71,1,.8,1.6,0s1.15-.71,1.77,0c.62.89,1.33,1,2,.09a.77.77,0,0,1,1.42,0c.62.8,1.24.89,1.86,0s1.33-.71,1.86.09c.36.36.62.8,1.24.18s.45-.8-.08-1.33c-5.5-5.14-11-10.38-16.5-15.52-.44-.44-.79-1-1.5-.27s-.27.89.26,1.25c.89.62.62,1.06-.09,1.59s-1.15,1-.09,1.69.09,1.24-.35,1.77-1.06.71-1.6,0-1.06-1-1.77-.09c-.44.62-1,.71-1.6,0-.35-.35-.79-.71-1.15-1.06-.8-.89-1.51-1.78-2.66-.27-.26.36-.71.27-1.06-.09l-1.33-1.33c-1.51-1.42-1.51-1.42.26-2.75a15.24,15.24,0,0,1,9.14-3.19c5.32-.09,10.64,0,15.87.09a16.28,16.28,0,0,1,6.47,1.42,9,9,0,0,1,5.77,8.33c.17,4.17-1,8.25-1.78,12.33-.26,1.15-.09,2.66-1,3.28s-2.66.18-4,.18H698.89A.28.28,0,0,0,698.8,191.33Z"/><path class="cls-1" d="M565.88,186.27V168.36c0-1,.27-1.24,1.33-1.24,3.73.09,7.54.09,11.26,0,1,0,1.24.26,1.24,1.15v36c0,.89-.26,1.15-1.24,1.06-3.72-.08-7.53-.08-11.26,0-1.06,0-1.33-.26-1.33-1.15Z"/><path class="cls-1" d="M670.34,186.36v17.91c0,1-.27,1.15-1.33,1.15q-5.73-.13-11.44,0c-.89,0-1.07-.17-1.07-1V168.18c0-.8.27-1,1.16-1h11.52c1,0,1.16.26,1.16,1.06Z"/><path class="cls-1" d="M572.8,165.61h-5.94c-.71,0-1.16-.09-1.07-.89.09-1.95.09-3.9,0-5.94,0-.62.27-.88,1-.88h12.06c.8,0,1.06.26,1,1,0,1.95-.09,3.81,0,5.77,0,.7-.26,1-1.06.88C576.88,165.52,574.84,165.61,572.8,165.61Z"/><path class="cls-1" d="M663.51,158h5.94c.8,0,1.15.17,1.15,1-.09,1.95-.09,3.81,0,5.76,0,.71-.26.89-1.06.89h-12c-.71,0-1.07-.09-1.07-.89.09-1.95.09-3.9,0-5.94,0-.71.27-.88,1-.88C659.52,158,661.56,158,663.51,158Z"/><rect class="cls-2" x="497.61" y="173.59" width="51.25" height="42.03"/><text class="cls-3" transform="translate(500.99 203.27)">By</text><rect class="cls-1" x="501.95" y="-1" width="236.22" height="234"/><path class="cls-4" d="M688,158.34H675.66V151H688Zm-.18,39.19H675.66V160H687.8Zm-14.72,0H660.94V172.44a2,2,0,0,0-2-1.95h-9.58a2,2,0,0,0-1.95,1.95v25.09H635.31V172.44a2,2,0,0,0-1.95-1.95h-9.49a2,2,0,0,0-2,1.95v25.09H609.77V172.44a14.14,14.14,0,0,1,14.1-14.1h9.49a10.27,10.27,0,0,1,8,4.43,10.4,10.4,0,0,1,8-4.43h9.58a14.06,14.06,0,0,1,14,14.1v25.09Zm-65.7-39.19H595.05V151h12.33Zm-.18,39.19H595.05V160H607.2Z"/><path class="cls-4" d="M702.35,197.71c-8.16,0-12.33-4.08-12.33-12.15V170.49q0-11.44,12.24-11.44h11q12.24,0,12.24,11.44v1.42q0,10.64-12.24,10.64H700v4.34a2.07,2.07,0,0,0,2.31,2.31h20.21v8.51Zm0-30.24c-1.51,0-2.31.53-2.31,1.69v6.29h13.3c1.51,0,2.31-.71,2.31-2.21v-4.08c0-1.07-.8-1.69-2.31-1.69Z"/><rect class="cls-2" x="501.95" y="-1" width="230.45" height="231.87"/><path class="cls-5" d="M247.11,109.22l-17,7.71,17,7.63V137l-34.75-17v-6L247.11,96.8Z"/><path class="cls-5" d="M287.81,110.46a14.93,14.93,0,0,1,5.23,1.77,15.45,15.45,0,0,1,4.17,3.37,17.35,17.35,0,0,1,2.84,4.61,14.56,14.56,0,0,1,1,5.59,19.4,19.4,0,0,1-1,5.94,14.44,14.44,0,0,1-2.84,5,14.29,14.29,0,0,1-4.7,3.46,14.75,14.75,0,0,1-6.47,1.33H257.22V92.1H280.9a10.53,10.53,0,0,1,4.08.8,10.67,10.67,0,0,1,3.28,2.22,10.21,10.21,0,0,1,2.21,3.28,10,10,0,0,1,.8,4.08,10.8,10.8,0,0,1-1,4.43A9.26,9.26,0,0,1,287.81,110.46Zm-17.46-1.33h5.23a4.43,4.43,0,0,0,2.92-.8,2.78,2.78,0,0,0,0-4.08,4.43,4.43,0,0,0-2.92-.8h-5.23Zm8,21.1c3.1,0,5.32-.53,6.56-1.51a5.51,5.51,0,0,0,1.42-6.29,4.86,4.86,0,0,0-1.51-1.86,8.5,8.5,0,0,0-2.57-1.33,11.88,11.88,0,0,0-3.82-.54h-8v11.44h7.9Z"/><path class="cls-5" d="M344.56,130.59v10.9H307.23V92.1h13.66v38.4h23.67Z"/><path class="cls-5" d="M375.06,91.57a28.32,28.32,0,0,1,10.29,2,27,27,0,0,1,8.42,5.41,26.08,26.08,0,0,1,5.68,8.07,23.27,23.27,0,0,1,2,9.84,24.41,24.41,0,0,1-2,9.84,25.88,25.88,0,0,1-14.1,13.48,26.55,26.55,0,0,1-10.29,2,28.3,28.3,0,0,1-10.28-2,26.8,26.8,0,0,1-8.42-5.41,25.85,25.85,0,0,1-5.68-8.07,23.27,23.27,0,0,1-2-9.84,24.41,24.41,0,0,1,2-9.84,26.08,26.08,0,0,1,5.68-8.07,27,27,0,0,1,8.42-5.41A26.53,26.53,0,0,1,375.06,91.57Zm0,38.4a13,13,0,0,0,4.88-1,12.6,12.6,0,0,0,4-2.84,12,12,0,0,0,2.66-4.16,14,14,0,0,0,0-10.29,13.23,13.23,0,0,0-2.66-4.17,14.2,14.2,0,0,0-4-2.84,11.3,11.3,0,0,0-4.88-1,12.94,12.94,0,0,0-4.87,1,12.6,12.6,0,0,0-4,2.84,11.82,11.82,0,0,0-2.66,4.17,14,14,0,0,0,0,10.29,11.87,11.87,0,0,0,2.66,4.16,12.85,12.85,0,0,0,4,2.84A12.6,12.6,0,0,0,375.06,130Z"/><path class="cls-5" d="M454.87,116v18.89a29,29,0,0,1-6.21,3.9,29.42,29.42,0,0,1-7.45,2.49,37.9,37.9,0,0,1-7.89.79,28.3,28.3,0,0,1-10.28-2,26.84,26.84,0,0,1-8.43-5.41,26,26,0,0,1-5.67-8.07,23.27,23.27,0,0,1-2-9.84,24.41,24.41,0,0,1,2-9.84,26.22,26.22,0,0,1,5.67-8.07A27,27,0,0,1,423,93.52a26.53,26.53,0,0,1,10.28-2,32.28,32.28,0,0,1,11.26,1.86,25.34,25.34,0,0,1,8.6,5.24l-8.51,9.13a15.81,15.81,0,0,0-5.05-2.93,18.4,18.4,0,0,0-6.3-1.06,13,13,0,0,0-4.88,1,12.83,12.83,0,0,0-4,2.84,12,12,0,0,0-2.66,4.17,14,14,0,0,0-1,5.14,16,16,0,0,0,1,5.5,12.79,12.79,0,0,0,2.66,4.34,13.12,13.12,0,0,0,4,2.93,11.24,11.24,0,0,0,4.88,1.06,12.3,12.3,0,0,0,4.17-.62,13.88,13.88,0,0,0,3.72-1.68V127h-8.86V116.13h22.52Z"/><path class="cls-6" d="M40.42,200.72V212H.7V162.6H39v11.26H13.91v8.69H34.66v10.9H13.91v7.19H40.42Z"/><path class="cls-6" d="M87.69,173.86H73.05v38H59.4v-38H44.68V162.6h43Z"/><path class="cls-6" d="M138.67,192.12a20.05,20.05,0,0,1-.89,6.12,19.68,19.68,0,0,1-2.48,5.41,17.78,17.78,0,0,1-4.17,4.43,19.46,19.46,0,0,1-5.76,3,29.65,29.65,0,0,1-9.67,1.51,27.76,27.76,0,0,1-9.48-1.51,19.29,19.29,0,0,1-8.52-5.59,20.93,20.93,0,0,1-4.34-8.6,25.54,25.54,0,0,1-.44-4.79V162.6h13.21v26c0,4.52.8,7.62,2.39,9.4s4,2.66,7.18,2.66,5.59-.89,7.19-2.66,2.48-4.88,2.48-9.4v-26h13.3Z"/><path class="cls-6" d="M193.2,187.33a22.89,22.89,0,0,1-1.86,9.23,24.55,24.55,0,0,1-5,7.62,26.26,26.26,0,0,1-7.35,5.41A22.82,22.82,0,0,1,170,211.9H146.65V162.51h21.72a23.85,23.85,0,0,1,9.67,2,23,23,0,0,1,7.89,5.32,25.81,25.81,0,0,1,5.32,7.89A25.09,25.09,0,0,1,193.2,187.33ZM168.73,200a10.38,10.38,0,0,0,4.34-1.15,11.41,11.41,0,0,0,3.46-2.75,12.54,12.54,0,0,0,2.31-4,12.39,12.39,0,0,0,.88-4.79,13.66,13.66,0,0,0-.88-5,12.44,12.44,0,0,0-6.12-6.83,9.53,9.53,0,0,0-4.43-1h-8.52V200Z"/><path class="cls-6" d="M214.13,212H200.47V162.6h13.66Z"/><path class="cls-6" d="M256.07,203.74H237l-3.55,8.16H219.18l24.12-49.39h6.47L274,211.9H259.7Zm-14.28-10.91h9.49l-4.79-10.73Z"/><path class="cls-6" d="M325,162.6V212h-6.48l-26.15-25.45V212H278.68V162.6h6.47L311.31,188V162.6Z"/><path class="cls-6" d="M374,173.86H359.37v38H345.71v-38H331V162.6h43Z"/><path class="cls-6" d="M403.88,156.12H414.7l-31,64.82H372.85Z"/><path class="cls-6" d="M418.69,195.05l17-7.63-17-7.71V167.3l34.76,17.11v6l-34.76,17Z"/></svg>