<?xml version="1.0" encoding="utf-8"?>
<!-- Generator: Adobe Illustrator 22.0.1, SVG Export Plug-In . SVG Version: 6.00 Build 0)  -->
<svg version="1.1" id="Calque_1" xmlns="http://www.w3.org/2000/svg" xmlns:xlink="http://www.w3.org/1999/xlink" x="0px" y="0px"
	 viewBox="0 0 951 309" style="enable-background:new 0 0 951 309;" xml:space="preserve">
<style type="text/css">
	.st0{fill:#FFFFFF;}
	.st1{font-family:'BrushScriptMT';}
	.st2{font-size:58.17px;}
	.st3{fill:#0D0C0D;}
	.st4{fill:none;}
	.st5{enable-background:new    ;}
	.st6{fill:#0B0B0E;}
</style>
<title>Plan de travail 2</title>
<path class="st0" d="M801,215.2c1.2-1.4,2.6-2.5,4.2-3.3c1.9-1,4-1.5,6.2-1.5c4,0,8,0,12.1,0c9.5,0,17.6,7.1,17.7,15.6
	c0.1,9.4,0,18.9,0,28.3c0,1-0.4,1.1-1.4,1.1c-4.3,0-8.6-0.1-12.9,0c-1.2,0-1.4-0.4-1.4-1.3c0-9,0-17.9,0-26.9c0-2.1-0.8-2.8-3.1-2.8
	c-3.5,0-7.1,0-10.6,0c-2.3,0-3.1,0.8-3.1,2.9c0,8.9,0,17.7,0,26.6c0,1.2-0.2,1.6-1.7,1.6c-4-0.1-8-0.1-12.1,0
	c-1.4,0-1.9-0.2-1.8-1.6c0.1-8.8,0-17.6,0-26.4c0-2.3-0.8-3-3.3-3h-10c-2.8,0-3.6,0.7-3.6,3.2c0,8.8,0,17.6,0,26.4
	c0,1.1-0.3,1.4-1.6,1.4c-4.2-0.1-8.5,0-12.7,0c-1,0-1.3-0.2-1.3-1.1c0-9.4-0.1-18.9,0.1-28.3c0.1-8.7,8.2-15.6,18-15.6
	c3.7,0,7.3,0.1,11,0C794,210.2,798.2,212,801,215.2z"/>
<path class="st0" d="M892,239.5c-5,0-10,0-15.1,0c-1.3,0-2,0.3-2.1,1.5s0.4,1.8,1.9,1.9c4.8,0.4,9.5,0.4,14.3,0.5
	c5.6,0.1,11.1,0.1,16.7,0c1.1,0,1.5,0.3,1.4,1.3c-0.1,3.2-0.1,6.3,0,9.5c0,1-0.3,1.2-1.4,1.2c-9.3,0-18.5,0-27.8,0
	c-7.9-0.1-15.4-6.1-16.5-13.4c-0.8-5.6-0.3-11.2-0.2-16.9c0.1-1.6,0.5-3.1,1.2-4.5c0.3-0.8,0.7-1.2,1.4-0.3c0.3,0.3,0.7,0.6,1,1
	c0.5,0.6,1,0.6,1.5-0.1c0.7-1,1.5-0.9,2.2,0c0.3,0.4,0.8,0.8,1.2,1.1c0.8,0.9,1.7,1.8,2.8,0.2c0.2-0.3,0.7-0.4,1-0.2
	c0.1,0,0.1,0.1,0.2,0.2c1,1,2.1,2,3.2,3c0.5,0.4,0.3,0.7-0.1,1c-1.4,1.2-2.8,2.5-4.2,3.7c-0.6,0.5-1,0.9-0.2,1.7s1.2,0.4,1.7-0.1
	c0.8-0.9,1.4-0.8,2,0.1c0.5,0.7,1.1,0.9,1.7,0.1s1.4-0.9,2.1,0c0.6,0.7,1.1,0.9,1.8,0s1.5-0.7,2.1,0.1s1.1,0.8,1.6,0s1.4-0.9,2.1,0
	s1.1,0.9,1.8,0s1.3-0.8,2,0s1.5,1.1,2.3,0.1c0.5-0.7,1.1-0.6,1.6,0c0.7,0.9,1.4,1,2.1,0s1.5-0.8,2.2,0.1c0.4,0.4,0.7,0.9,1.5,0.2
	s0.5-0.9-0.1-1.5c-6.2-5.8-12.4-11.7-18.6-17.5c-0.5-0.5-0.9-1.1-1.7-0.3s-0.3,1,0.3,1.4c1,0.6,0.7,1.2-0.1,1.8s-1.3,1.1-0.1,1.9
	s0.1,1.4-0.4,2s-1.2,0.8-1.8,0s-1.2-1.1-2-0.1c-0.5,0.7-1.1,0.8-1.8,0c-0.4-0.4-0.9-0.8-1.3-1.2c-0.9-1-1.7-2-3-0.3
	c-0.3,0.4-0.8,0.3-1.2-0.1s-1-1-1.5-1.5c-1.7-1.6-1.7-1.6,0.3-3.1c2.9-2.3,6.5-3.6,10.3-3.6c6-0.1,12,0,17.9,0.1
	c2.5,0,5,0.6,7.3,1.6c3.9,1.5,6.5,5.2,6.5,9.4c0.2,4.7-1.1,9.3-2,13.9c-0.3,1.3-0.1,3-1.1,3.7s-3,0.2-4.5,0.2c-4,0-8,0-12.1,0
	L892,239.5z"/>
<path class="st0" d="M742.1,233.8c0-6.7,0-13.4,0-20.2c0-1.1,0.3-1.4,1.5-1.4c4.2,0.1,8.5,0.1,12.7,0c1.2,0,1.4,0.3,1.4,1.3
	c0,13.5,0,27.1,0,40.6c0,1-0.3,1.3-1.4,1.2c-4.2-0.1-8.5-0.1-12.7,0c-1.2,0-1.5-0.3-1.5-1.3C742.1,247.3,742.1,240.6,742.1,233.8z"
	/>
<path class="st0" d="M859.9,233.9c0,6.7,0,13.4,0,20.2c0,1.1-0.3,1.3-1.5,1.3c-4.3-0.1-8.6,0-12.8,0c-1,0-1.2-0.2-1.2-1.1
	c0-13.6,0-27.3,0-40.9c0-0.9,0.3-1.1,1.3-1.1c4.3,0,8.7,0,13,0c1.1,0,1.3,0.3,1.3,1.2C859.9,220.3,859.9,227.1,859.9,233.9z"/>
<path class="st0" d="M749.9,210.5c-2.2,0-4.4,0-6.7,0c-0.8,0-1.2-0.1-1.2-1c0.1-2.2,0-4.4,0-6.7c0-0.8,0.3-1,1.1-1
	c4.5,0,9.1,0,13.6,0c0.9,0,1.2,0.3,1.1,1.1c0,2.2,0,4.4,0,6.5c0,0.8-0.3,1-1.2,1C754.5,210.4,752.2,210.5,749.9,210.5z"/>
<path class="st0" d="M852.2,201.9c2.2,0,4.4,0,6.7,0c0.9,0,1.3,0.2,1.3,1.1c-0.1,2.2-0.1,4.4,0,6.5c0,0.8-0.3,1-1.2,1
	c-4.5,0-9,0-13.5,0c-0.8,0-1.2-0.1-1.2-1c0.1-2.2,0-4.4,0-6.7c0-0.8,0.3-1,1.1-0.9C847.7,201.9,850,201.9,852.2,201.9z"/>
<text transform="matrix(1 0 0 1 668.91 252.97)" class="st0 st1 st2">By</text>
<rect x="670" y="22.5" class="st3" width="266.4" height="263.9"/>
<rect x="670" y="22.5" class="st4" width="259.9" height="261.5"/>
<path class="st0" d="M879.8,202.3h-13.9V194h13.9V202.3z M879.6,246.5h-13.7v-42.3h13.7V246.5z M863,246.5h-13.7v-28.3
	c0-1.2-1-2.2-2.2-2.2l0,0h-10.8c-1.2,0-2.2,1-2.2,2.2v28.3h-13.7v-28.3c0-1.2-1-2.2-2.2-2.2h-10.7c-1.2,0-2.2,1-2.2,2.2v28.3h-13.7
	v-28.3c0-8.8,7.1-15.9,15.9-15.9h10.7c3.6,0.2,6.9,2,9,5c2.1-3,5.4-4.8,9-5H847c8.8,0,15.9,7.1,15.9,15.9l0,0L863,246.5z M789,202.3
	h-14V194h13.9L789,202.3z M788.7,246.5H775v-42.3h13.7V246.5z"/>
<g class="st5">
	<path class="st0" d="M896,246.7c-9.2,0-13.9-4.6-13.9-13.7v-17c0-8.6,4.6-12.9,13.8-12.9h12.4c9.2,0,13.8,4.3,13.8,12.9v1.6
		c0,8-4.6,12-13.8,12h-15v4.9c0,1.7,0.9,2.6,2.6,2.6h22.8v9.6H896z M896,212.6c-1.7,0-2.6,0.6-2.6,1.9v7.1h15c1.7,0,2.6-0.8,2.6-2.5
		v-4.6c0-1.2-0.9-1.9-2.6-1.9H896z"/>
</g>
<g class="st5">
	<path class="st0" d="M708.3,217.9l-2.2,2.5c2.5,0.2,4.8,0.5,6.8,0.9s3.8,0.8,5.5,1.3s3.2,1,4.5,1.5c4.5,1.9,6.7,4.5,6.7,7.8
		c0,2-0.9,4-2.8,6c-1.9,1.9-4.3,3.7-7.3,5.2s-6.1,2.7-9.3,3.6c-3.2,0.9-6.1,1.3-8.6,1.3c-4.3,0-7.7-0.8-10.1-2.4
		c-2.4-1.6-3.6-3.8-3.6-6.5c0-1.9,0.7-4.2,2.2-6.8s3.8-5.8,6.9-9.7c-2.3-0.1-4-0.5-5-1s-1.5-1.4-1.5-2.4c0-0.6,0.2-1.1,0.6-1.5
		c0.4-0.3,0.9-0.6,1.5-0.7c0.6-0.2,1.8-0.3,3.6-0.6c1.8-0.2,4.1-0.5,6.8-0.8c3.1-3.8,5.9-6.6,8.3-8.5c2.5-1.9,5.1-3,7.9-3.3
		c0.2,0,0.5,0,0.7,0s0.4,0.1,0.4,0.2c0,0.2-0.3,0.6-1,1.4c-0.6,0.7-1.7,1.9-3.1,3.5s-3.1,3.5-5.1,5.7c5.3-0.7,9.7-1.5,13.1-2.4
		c3.4-0.9,6-2,7.7-3.3s2.6-2.7,2.6-4.2c0-1.9-0.9-3.3-2.8-4.1c-1.8-0.8-4.7-1.3-8.5-1.3c-2.1,0-4.5,0.2-7.2,0.6
		c-2.7,0.4-5.2,0.9-7.4,1.4s-4.2,1.1-5.9,1.7c-1.7,0.6-2.6,1-2.6,1.3c0,0.1,0.1,0.2,0.3,0.3c1.4,0.5,2.1,0.9,2.1,1.3
		c0,0.5-2.1,1.3-6.4,2.6c-4.3,1.3-7.1,1.9-8.6,1.9c-1.1,0-1.6-0.5-1.6-1.6c0-1.2,1.1-3.5,3.4-6.7c2.3-3.2,4.4-5.3,6.3-6.2
		c0.7-0.3,2.2-0.8,4.6-1.5c2.4-0.7,5-1.3,7.9-1.9c2.9-0.6,5.8-1.1,8.7-1.6c3-0.4,5.6-0.6,7.9-0.6c5.4,0,9.4,1,12.1,2.9
		c2.7,1.9,4.1,4.3,4.1,7.2c0,1.9-0.6,3.8-1.9,5.6c-1.2,1.8-3.2,3.5-5.8,5.1s-6,3-10.2,4.2C718.9,216.3,714,217.2,708.3,217.9z
		 M703.8,223.3c-1.5,1.7-2.8,3.3-3.9,4.6s-2,2.4-2.5,3.3c-0.5,0.8-0.7,1.7-0.7,2.5c0,1.4,0.7,2.6,2.1,3.6c1.4,1.1,3.4,1.6,6.1,1.6
		c2.4,0,5.1-0.4,7.8-1.3c2.8-0.9,5.1-2,7-3.4s2.8-2.8,2.8-4.2c0-1.2-0.7-2.2-2.1-3c-1.4-0.8-3.5-1.5-6.4-2.1
		C711.2,224.4,707.8,223.8,703.8,223.3z"/>
	<path class="st0" d="M752.9,234.8l-7.6,6.4c-3.6,3.1-6,4.7-7.3,4.7c-1.1,0-2.3-1.3-3.5-3.8s-1.8-4.7-1.8-6.6c0-1.6,0.2-3,0.7-4.1
		s1.4-2.6,2.6-4.3c1.7-2.4,3.4-4.4,5-6.1c1.6-1.7,3-3,4.2-3.9s2.1-1.4,2.6-1.4c0.8,0,1.5,0.4,2.2,1.2s1.1,1.6,1.1,2.5
		c0,0.5-0.4,1.4-1.2,2.6c-0.8,1.2-2,2.7-3.7,4.5s-4,4-7.1,6.5l-0.8,2.3c-0.2,0.5-0.3,0.8-0.3,1.2c0,0.8,0.4,1.1,1.2,1.1s2.7-1,5.6-3
		s6.1-4.7,9.6-8.1c1.3-1.3,2.4-2.5,3.3-3.5c0.9-1,1.7-2,2.4-2.9s1.3-1.6,1.8-2s0.9-0.7,1.3-0.7c0.7-0.1,1.3,0.2,1.7,0.9
		s0.6,1.7,0.6,3c0,0.8-0.3,1.7-1,2.9c-0.7,1.1-2,3.1-3.8,5.8c-1.9,2.7-3.7,5.6-5.6,8.5s-3.8,6.3-5.7,10c0.1-0.1,1-0.9,2.6-2.5
		s3.4-3.3,5.3-5c1.8-1.7,3.4-3.1,4.6-4.2c1.2-1.1,2.7-2.3,4.5-3.7v2.8c-3.8,4.1-7.3,8-10.4,11.6c-3.1,3.7-5.5,6.6-7.2,8.8
		c-1.7,2.2-2.7,3.5-3,3.8c-0.8,1-1.5,1.9-2.1,2.8s-1.1,1.5-1.5,2s-0.7,0.7-1,0.7c-0.6,0-1.1-0.6-1.6-1.8c-0.5-1.2-0.7-2.2-0.7-3.1
		c0-0.8,0.2-1.5,0.5-2.2C741.1,254,745.7,246.1,752.9,234.8z"/>
</g>
<g class="st5">
	<path class="st6" d="M382.6,146.9l-19.2,8.7l19.2,8.6v14L343.4,159v-6.8l39.2-19.3V146.9z"/>
	<path class="st6" d="M428.5,148.3c2.1,0.3,4.1,1,5.9,2s3.4,2.3,4.7,3.8c1.3,1.5,2.4,3.3,3.2,5.2c0.8,2,1.1,4.1,1.1,6.3
		c0,2.3-0.4,4.5-1.1,6.7c-0.7,2.1-1.8,4-3.2,5.6s-3.2,2.9-5.3,3.9c-2.1,1-4.5,1.5-7.3,1.5H394v-55.7h26.7c1.6,0,3.2,0.3,4.6,0.9
		c1.4,0.6,2.7,1.5,3.7,2.5c1.1,1.1,1.9,2.3,2.5,3.7s0.9,2.9,0.9,4.6c0,1.8-0.4,3.4-1.1,5C430.7,145.9,429.7,147.2,428.5,148.3z
		 M408.8,146.8h5.9c1.5,0,2.6-0.3,3.3-0.9c0.7-0.6,1-1.4,1-2.3c0-0.9-0.3-1.7-1-2.3s-1.8-0.9-3.3-0.9h-5.9V146.8z M417.8,170.6
		c3.5,0,6-0.6,7.4-1.7c1.4-1.2,2.1-2.8,2.1-4.8c0-0.8-0.2-1.6-0.5-2.3c-0.3-0.8-0.9-1.4-1.7-2.1c-0.8-0.6-1.7-1.1-2.9-1.5
		c-1.2-0.4-2.6-0.6-4.3-0.6h-9v12.9h8.9V170.6z"/>
	<path class="st6" d="M492.5,171v12.3h-42.1v-55.7h15.4V171H492.5z"/>
	<path class="st6" d="M523.7,127c4.1,0,8,0.8,11.6,2.2c3.6,1.5,6.8,3.5,9.5,6.1s4.8,5.6,6.4,9.1c1.6,3.5,2.3,7.2,2.3,11.1
		s-0.8,7.7-2.3,11.1c-1.6,3.5-3.7,6.5-6.4,9.1s-5.8,4.6-9.5,6.1c-3.6,1.5-7.5,2.2-11.6,2.2s-8-0.8-11.6-2.2
		c-3.6-1.5-6.8-3.5-9.5-6.1s-4.8-5.6-6.4-9.1s-2.3-7.2-2.3-11.1s0.8-7.7,2.3-11.1c1.6-3.5,3.7-6.5,6.4-9.1c2.7-2.6,5.9-4.6,9.5-6.1
		C515.7,127.7,519.6,127,523.7,127z M523.7,170.3c1.9,0,3.8-0.4,5.5-1.1c1.7-0.8,3.2-1.8,4.5-3.2c1.3-1.3,2.3-2.9,3-4.7
		s1.1-3.7,1.1-5.8s-0.4-4-1.1-5.8c-0.7-1.8-1.8-3.4-3-4.7c-1.3-1.3-2.8-2.4-4.5-3.2s-3.5-1.1-5.5-1.1c-1.9,0-3.8,0.4-5.5,1.1
		c-1.7,0.8-3.2,1.8-4.5,3.2c-1.3,1.3-2.3,2.9-3,4.7s-1.1,3.7-1.1,5.8s0.4,4,1.1,5.8s1.7,3.4,3,4.7s2.8,2.4,4.5,3.2
		C519.9,169.9,521.8,170.3,523.7,170.3z"/>
	<path class="st6" d="M612.9,154.6v21.3c-2.1,1.7-4.4,3.2-7,4.4c-2.6,1.3-5.4,2.2-8.4,2.8c-2.8,0.6-5.8,0.9-8.9,0.9
		c-4.1,0-8-0.8-11.6-2.2c-3.6-1.5-6.8-3.5-9.5-6.1s-4.8-5.6-6.4-9.1c-1.6-3.5-2.3-7.2-2.3-11.1s0.8-7.7,2.3-11.1
		c1.6-3.5,3.7-6.5,6.4-9.1s5.9-4.6,9.5-6.1s7.5-2.2,11.6-2.2c4.7,0,8.9,0.7,12.7,2.1s7,3.4,9.7,5.9l-9.6,10.3
		c-1.6-1.4-3.5-2.5-5.7-3.3s-4.6-1.2-7.1-1.2c-1.9,0-3.8,0.4-5.5,1.1c-1.7,0.8-3.2,1.8-4.5,3.2c-1.3,1.3-2.3,2.9-3,4.7
		s-1.1,3.7-1.1,5.8c0,2.2,0.4,4.3,1.1,6.2c0.7,1.9,1.7,3.5,3,4.9s2.8,2.5,4.5,3.3s3.5,1.2,5.5,1.2c1.7,0,3.3-0.2,4.7-0.7
		c1.5-0.4,2.9-1.1,4.2-1.9V167h-10v-12.3L612.9,154.6L612.9,154.6z"/>
</g>
<g class="st5">
	<path class="st6" d="M149.5,250.1v12.7h-44.8v-55.7h43.2v12.7h-28.3v9.8H143v12.3h-23.4v8.1L149.5,250.1L149.5,250.1z"/>
	<path class="st6" d="M202.8,219.8h-16.5v42.9h-15.4v-42.9h-16.6v-12.7h48.5V219.8z"/>
	<path class="st6" d="M260.3,240.4c0,2.4-0.3,4.7-1,6.9c-0.6,2.2-1.6,4.3-2.8,6.1c-1.2,1.9-2.8,3.5-4.7,5c-1.9,1.4-4,2.6-6.5,3.4
		c-3.2,1.1-6.8,1.7-10.9,1.7c-4.1,0-7.7-0.6-10.7-1.7c-4-1.4-7.2-3.5-9.6-6.3c-2.4-2.8-4-6.1-4.9-9.7c-0.3-1.6-0.5-3.4-0.5-5.4
		v-33.3h14.9v29.3c0,5.1,0.9,8.6,2.7,10.6s4.5,3,8.1,3s6.3-1,8.1-3s2.8-5.5,2.8-10.6v-29.3h15L260.3,240.4z"/>
	<path class="st6" d="M321.8,235c0,3.7-0.7,7.2-2.1,10.4c-1.4,3.3-3.2,6.1-5.6,8.6s-5.1,4.5-8.3,6.1c-3.2,1.6-6.6,2.4-10.2,2.6
		h-26.3V207h24.5c3.8,0,7.5,0.7,10.9,2.2c3.4,1.4,6.4,3.4,8.9,6s4.5,5.5,6,8.9C321,227.5,321.8,231.1,321.8,235z M294.2,249.3
		c1.7-0.1,3.4-0.5,4.9-1.3s2.8-1.8,3.9-3.1s2-2.8,2.6-4.5c0.7-1.7,1-3.5,1-5.4s-0.3-3.8-1-5.6s-1.6-3.3-2.8-4.6
		c-1.2-1.3-2.5-2.3-4.1-3.1s-3.2-1.1-5-1.1h-9.6v28.7L294.2,249.3L294.2,249.3z"/>
	<path class="st6" d="M345.4,262.8H330v-55.7h15.4V262.8z"/>
	<path class="st6" d="M392.7,253.5h-21.5l-4,9.2h-16.1l27.2-55.7h7.3l27.3,55.7h-16.1L392.7,253.5z M376.6,241.2h10.7l-5.4-12.1
		L376.6,241.2z"/>
	<path class="st6" d="M470.4,207.1v55.7h-7.3l-29.5-28.7v28.7h-15.4v-55.7h7.3l29.5,28.7v-28.7L470.4,207.1L470.4,207.1z"/>
	<path class="st6" d="M525.7,219.8h-16.5v42.9h-15.4v-42.9h-16.6v-12.7h48.5V219.8z"/>
	<path class="st6" d="M551.9,199.8H564l-35,73.1h-12.2L551.9,199.8z"/>
	<path class="st6" d="M568.6,243.7l19.2-8.6l-19.2-8.7v-14l39.2,19.3v6.8l-39.2,19.2V243.7z"/>
</g>
</svg>
